<?xml version="1.0" encoding="UTF-8" standalone="no"?>
<svg
   xmlns:dc="http://purl.org/dc/elements/1.1/"
   xmlns:cc="http://creativecommons.org/ns#"
   xmlns:rdf="http://www.w3.org/1999/02/22-rdf-syntax-ns#"
   xmlns:svg="http://www.w3.org/2000/svg"
   xmlns="http://www.w3.org/2000/svg"
   xmlns:sodipodi="http://sodipodi.sourceforge.net/DTD/sodipodi-0.dtd"
   xmlns:inkscape="http://www.inkscape.org/namespaces/inkscape"
   version="1.1"
   width="72"
   height="72"
   id="svg2"
   inkscape:version="0.91 r13725"
   sodipodi:docname="apple.svg">
  <metadata
     id="metadata16">
    <rdf:RDF>
      <cc:Work
         rdf:about="">
        <dc:format>image/svg+xml</dc:format>
        <dc:type
           rdf:resource="http://purl.org/dc/dcmitype/StillImage" />
        <dc:title />
      </cc:Work>
    </rdf:RDF>
  </metadata>
  <sodipodi:namedview
     pagecolor="#ffffff"
     bordercolor="#666666"
     borderopacity="1"
     objecttolerance="10"
     gridtolerance="10"
     guidetolerance="10"
     inkscape:pageopacity="0"
     inkscape:pageshadow="2"
     inkscape:window-width="1423"
     inkscape:window-height="691"
     id="namedview14"
     showgrid="false"
     fit-margin-top="0"
     fit-margin-left="0"
     fit-margin-right="0"
     fit-margin-bottom="0"
     inkscape:zoom="2"
     inkscape:cx="-111.5"
     inkscape:cy="44.508192"
     inkscape:window-x="223"
     inkscape:window-y="136"
     inkscape:window-maximized="0"
     inkscape:current-layer="svg2"
     showguides="false" />
  <defs
     id="defs4">
    <linearGradient
       id="grad_1"
       y2="196.5"
       x1="226"
       y1="168.5"
       x2="254"
       gradientUnits="userSpaceOnUse"
       gradientTransform="matrix(2,0,0,2,-443,-323)">
      <stop
         offset="0"
         stop-color="#FF9999"
         stop-opacity="1"
         id="stop7" />
      <stop
         offset="1"
         stop-color="#CC0000"
         stop-opacity="1"
         id="stop9" />
    </linearGradient>
  </defs>
  <!-- Exported by Scratch - http://scratch.mit.edu/ -->
  <path
     id="ID0.46159326331689954"
     d="m 37,16.000001 c 7.174,0 13.674,2.914 18.38,7.62 4.706,4.706 7.62,11.206 7.62,18.38 0,7.174 -2.914,13.674 -7.62,18.38 -4.706,4.706 -11.206,7.62 -18.38,7.62 -7.174,0 -13.674,-2.914 -18.38,-7.62 -4.706,-4.706 -7.62,-11.206 -7.62,-18.38 0,-7.174 2.914,-13.674 7.62,-18.38 4.706,-4.706 11.206,-7.62 18.38,-7.62 z"
     style="fill:url(#grad_1);stroke:#000000;stroke-width:4"
     inkscape:connector-curvature="0" />
  <path
     id="ID0.15622942289337516"
     d="m 27,24.000001 c 0,0 4.714,6.33 8,8 3.808,1.824 7.684,2.84 11,2 3.334,-0.648 7,-6 7,-6"
     inkscape:connector-curvature="0"
     style="fill:none;stroke:#000000;stroke-width:4;stroke-linecap:round" />
  <path
     id="ID0.7153637525625527"
     d="m 36,30.000001 c 0,0 2.94,-11.836 6,-17 2.4,-4.052 10,-9.9999999 10,-9.9999999"
     inkscape:connector-curvature="0"
     style="fill:none;stroke:#000000;stroke-width:4;stroke-linecap:round" />
  <ellipse
     style="fill:#008000"
     id="path3340"
     cx="53.886967"
     cy="-20.256348"
     rx="9.25"
     ry="4.75"
     transform="matrix(0.83973951,0.54298946,-0.54298946,0.83973951,0,0)" />
</svg>
